<svg xmlns="http://www.w3.org/2000/svg" width="707" height="461" viewBox="0 0 707 461">
<path d="M 138.0 130.0 L 137.0 131.0 L 136.0 131.0 L 135.0 131.0 L 134.0 131.0 L 133.0 131.0 L 132.0 131.0 L 131.0 131.0 L 130.0 131.0 L 129.0 131.0 L 128.0 132.0 L 127.0 132.0 L 126.0 132.0 L 125.0 132.0 L 124.0 132.0 L 123.0 133.0 L 122.0 133.0 L 121.0 133.0 L 120.0 133.0 L 119.0 134.0 L 118.0 134.0 L 117.0 134.0 L 116.0 135.0 L 115.0 135.0 L 114.0 135.0 L 113.0 136.0 L 112.0 136.0 L 111.0 137.0 L 110.0 137.0 L 109.0 138.0 L 108.0 138.0 L 107.0 138.0 L 106.0 139.0 L 105.0 140.0 L 104.0 140.0 L 103.0 141.0 L 102.0 141.0 L 101.0 142.0 L 100.0 143.0 L 99.0 143.0 L 98.0 144.0 L 97.0 145.0 L 96.0 145.0 L 95.0 146.0 L 94.0 147.0 L 93.0 147.0 L 92.0 148.0 L 91.0 149.0 L 90.0 150.0 L 89.0 151.0 L 88.0 152.0 L 87.0 153.0 L 86.0 154.0 L 85.0 155.0 L 84.0 156.0 L 83.0 157.0 L 82.0 158.0 L 81.0 159.0 L 80.0 158.0 L 80.0 157.0 L 80.0 156.0 L 80.0 155.0 L 80.0 154.0 L 80.0 153.0 L 80.0 152.0 L 80.0 151.0 L 80.0 150.0 L 80.0 149.0 L 80.0 148.0 L 80.0 147.0 L 80.0 146.0 L 80.0 145.0 L 80.0 144.0 L 80.0 143.0 L 80.0 142.0 L 80.0 141.0 L 80.0 140.0 L 80.0 139.0 L 80.0 138.0 L 80.0 137.0 L 80.0 136.0 L 79.0 135.0 L 78.0 135.0 L 77.0 135.0 L 76.0 135.0 L 75.0 135.0 L 74.0 135.0 L 73.0 135.0 L 72.0 135.0 L 71.0 135.0 L 70.0 135.0 L 69.0 135.0 L 68.0 135.0 L 67.0 135.0 L 66.0 135.0 L 65.0 135.0 L 64.0 135.0 L 63.0 135.0 L 62.0 135.0 L 61.0 135.0 L 60.0 135.0 L 59.0 135.0 L 58.0 135.0 L 57.0 135.0 L 56.0 135.0 L 55.0 135.0 L 54.0 135.0 L 53.0 135.0 L 52.0 135.0 L 51.0 135.0 L 50.0 135.0 L 49.0 135.0 L 48.0 135.0 L 47.0 135.0 L 46.0 135.0 L 45.0 135.0 L 44.0 135.0 L 43.0 135.0 L 42.0 135.0 L 41.0 135.0 L 40.0 135.0 L 39.0 135.0 L 38.0 135.0 L 37.0 135.0 L 36.0 135.0 L 35.0 135.0 L 34.0 135.0 L 33.0 135.0 L 32.0 135.0 L 31.0 135.0 L 30.0 135.0 L 29.0 135.0 L 28.0 135.0 L 27.0 135.0 L 26.0 135.0 L 25.0 135.0 L 24.0 135.0 L 23.0 135.0 L 22.0 135.0 L 21.0 135.0 L 20.0 135.0 L 19.0 135.0 L 18.0 135.0 L 17.0 135.0 L 16.0 135.0 L 15.0 135.0 L 14.0 135.0 L 13.0 135.0 L 12.0 135.0 L 11.0 135.0 L 10.0 135.0 L 9.0 135.0 L 8.0 136.0 L 8.0 137.0 L 8.0 138.0 L 8.0 139.0 L 8.0 140.0 L 8.0 141.0 L 8.0 142.0 L 8.0 143.0 L 8.0 144.0 L 8.0 145.0 L 8.0 146.0 L 8.0 147.0 L 8.0 148.0 L 8.0 149.0 L 8.0 150.0 L 8.0 151.0 L 8.0 152.0 L 8.0 153.0 L 8.0 154.0 L 8.0 155.0 L 8.0 156.0 L 8.0 157.0 L 8.0 158.0 L 8.0 159.0 L 8.0 160.0 L 8.0 161.0 L 8.0 162.0 L 8.0 163.0 L 8.0 164.0 L 8.0 165.0 L 8.0 166.0 L 8.0 167.0 L 8.0 168.0 L 8.0 169.0 L 8.0 170.0 L 8.0 171.0 L 8.0 172.0 L 8.0 173.0 L 8.0 174.0 L 8.0 175.0 L 8.0 176.0 L 8.0 177.0 L 8.0 178.0 L 8.0 179.0 L 8.0 180.0 L 8.0 181.0 L 8.0 182.0 L 8.0 183.0 L 8.0 184.0 L 8.0 185.0 L 8.0 186.0 L 8.0 187.0 L 8.0 188.0 L 8.0 189.0 L 8.0 190.0 L 8.0 191.0 L 8.0 192.0 L 8.0 193.0 L 8.0 194.0 L 8.0 195.0 L 8.0 196.0 L 8.0 197.0 L 8.0 198.0 L 8.0 199.0 L 8.0 200.0 L 8.0 201.0 L 8.0 202.0 L 8.0 203.0 L 8.0 204.0 L 8.0 205.0 L 8.0 206.0 L 8.0 207.0 L 8.0 208.0 L 8.0 209.0 L 8.0 210.0 L 8.0 211.0 L 8.0 212.0 L 8.0 213.0 L 8.0 214.0 L 8.0 215.0 L 8.0 216.0 L 8.0 217.0 L 8.0 218.0 L 8.0 219.0 L 8.0 220.0 L 8.0 221.0 L 8.0 222.0 L 8.0 223.0 L 8.0 224.0 L 8.0 225.0 L 8.0 226.0 L 8.0 227.0 L 8.0 228.0 L 8.0 229.0 L 8.0 230.0 L 8.0 231.0 L 8.0 232.0 L 8.0 233.0 L 8.0 234.0 L 8.0 235.0 L 8.0 236.0 L 8.0 237.0 L 8.0 238.0 L 8.0 239.0 L 8.0 240.0 L 8.0 241.0 L 8.0 242.0 L 8.0 243.0 L 8.0 244.0 L 8.0 245.0 L 8.0 246.0 L 8.0 247.0 L 8.0 248.0 L 8.0 249.0 L 8.0 250.0 L 8.0 251.0 L 8.0 252.0 L 8.0 253.0 L 8.0 254.0 L 8.0 255.0 L 8.0 256.0 L 8.0 257.0 L 8.0 258.0 L 8.0 259.0 L 8.0 260.0 L 8.0 261.0 L 8.0 262.0 L 8.0 263.0 L 8.0 264.0 L 8.0 265.0 L 8.0 266.0 L 8.0 267.0 L 8.0 268.0 L 8.0 269.0 L 8.0 270.0 L 8.0 271.0 L 8.0 272.0 L 8.0 273.0 L 8.0 274.0 L 8.0 275.0 L 8.0 276.0 L 8.0 277.0 L 8.0 278.0 L 8.0 279.0 L 8.0 280.0 L 8.0 281.0 L 8.0 282.0 L 8.0 283.0 L 8.0 284.0 L 8.0 285.0 L 8.0 286.0 L 8.0 287.0 L 8.0 288.0 L 8.0 289.0 L 8.0 290.0 L 8.0 291.0 L 8.0 292.0 L 8.0 293.0 L 8.0 294.0 L 8.0 295.0 L 8.0 296.0 L 8.0 297.0 L 8.0 298.0 L 8.0 299.0 L 8.0 300.0 L 8.0 301.0 L 8.0 302.0 L 8.0 303.0 L 8.0 304.0 L 8.0 305.0 L 8.0 306.0 L 8.0 307.0 L 8.0 308.0 L 8.0 309.0 L 8.0 310.0 L 8.0 311.0 L 8.0 312.0 L 8.0 313.0 L 8.0 314.0 L 8.0 315.0 L 8.0 316.0 L 8.0 317.0 L 8.0 318.0 L 8.0 319.0 L 8.0 320.0 L 8.0 321.0 L 8.0 322.0 L 8.0 323.0 L 8.0 324.0 L 8.0 325.0 L 8.0 326.0 L 8.0 327.0 L 8.0 328.0 L 8.0 329.0 L 8.0 330.0 L 8.0 331.0 L 8.0 332.0 L 8.0 333.0 L 8.0 334.0 L 8.0 335.0 L 8.0 336.0 L 8.0 337.0 L 9.0 337.0 L 10.0 337.0 L 11.0 337.0 L 12.0 337.0 L 13.0 337.0 L 14.0 337.0 L 15.0 337.0 L 16.0 337.0 L 17.0 337.0 L 18.0 337.0 L 19.0 337.0 L 20.0 337.0 L 21.0 337.0 L 22.0 337.0 L 23.0 337.0 L 24.0 337.0 L 25.0 337.0 L 26.0 337.0 L 27.0 337.0 L 28.0 337.0 L 29.0 337.0 L 30.0 337.0 L 31.0 337.0 L 32.0 337.0 L 33.0 337.0 L 34.0 337.0 L 35.0 337.0 L 36.0 337.0 L 37.0 337.0 L 38.0 337.0 L 39.0 337.0 L 40.0 337.0 L 41.0 337.0 L 42.0 337.0 L 43.0 337.0 L 44.0 337.0 L 45.0 337.0 L 46.0 337.0 L 47.0 337.0 L 48.0 337.0 L 49.0 337.0 L 50.0 337.0 L 51.0 337.0 L 52.0 337.0 L 53.0 337.0 L 54.0 337.0 L 55.0 337.0 L 56.0 337.0 L 57.0 337.0 L 58.0 337.0 L 59.0 337.0 L 60.0 337.0 L 61.0 337.0 L 62.0 337.0 L 63.0 337.0 L 64.0 337.0 L 65.0 337.0 L 66.0 337.0 L 67.0 337.0 L 68.0 337.0 L 69.0 337.0 L 70.0 337.0 L 71.0 337.0 L 72.0 337.0 L 73.0 337.0 L 74.0 337.0 L 75.0 337.0 L 76.0 337.0 L 77.0 337.0 L 78.0 337.0 L 79.0 337.0 L 80.0 337.0 L 80.0 336.0 L 80.0 335.0 L 80.0 334.0 L 80.0 333.0 L 80.0 332.0 L 80.0 331.0 L 80.0 330.0 L 80.0 329.0 L 80.0 328.0 L 80.0 327.0 L 80.0 326.0 L 80.0 325.0 L 80.0 324.0 L 80.0 323.0 L 80.0 322.0 L 80.0 321.0 L 80.0 320.0 L 80.0 319.0 L 80.0 318.0 L 80.0 317.0 L 80.0 316.0 L 80.0 315.0 L 80.0 314.0 L 80.0 313.0 L 80.0 312.0 L 80.0 311.0 L 80.0 310.0 L 80.0 309.0 L 80.0 308.0 L 80.0 307.0 L 80.0 306.0 L 80.0 305.0 L 80.0 304.0 L 80.0 303.0 L 80.0 302.0 L 80.0 301.0 L 80.0 300.0 L 80.0 299.0 L 80.0 298.0 L 80.0 297.0 L 80.0 296.0 L 80.0 295.0 L 80.0 294.0 L 80.0 293.0 L 80.0 292.0 L 80.0 291.0 L 80.0 290.0 L 80.0 289.0 L 80.0 288.0 L 80.0 287.0 L 80.0 286.0 L 80.0 285.0 L 80.0 284.0 L 80.0 283.0 L 80.0 282.0 L 80.0 281.0 L 80.0 280.0 L 80.0 279.0 L 80.0 278.0 L 80.0 277.0 L 80.0 276.0 L 80.0 275.0 L 80.0 274.0 L 80.0 273.0 L 80.0 272.0 L 80.0 271.0 L 80.0 270.0 L 80.0 269.0 L 80.0 268.0 L 80.0 267.0 L 80.0 266.0 L 80.0 265.0 L 80.0 264.0 L 80.0 263.0 L 80.0 262.0 L 80.0 261.0 L 80.0 260.0 L 80.0 259.0 L 80.0 258.0 L 80.0 257.0 L 80.0 256.0 L 80.0 255.0 L 80.0 254.0 L 80.0 253.0 L 80.0 252.0 L 80.0 251.0 L 80.0 250.0 L 80.0 249.0 L 80.0 248.0 L 80.0 247.0 L 80.0 246.0 L 80.0 245.0 L 80.0 244.0 L 80.0 243.0 L 80.0 242.0 L 80.0 241.0 L 80.0 240.0 L 80.0 239.0 L 80.0 238.0 L 80.0 237.0 L 80.0 236.0 L 80.0 235.0 L 80.0 234.0 L 80.0 233.0 L 80.0 232.0 L 80.0 231.0 L 80.0 230.0 L 80.0 229.0 L 80.0 228.0 L 80.0 227.0 L 80.0 226.0 L 80.0 225.0 L 80.0 224.0 L 80.0 223.0 L 80.0 222.0 L 81.0 221.0 L 81.0 220.0 L 81.0 219.0 L 81.0 218.0 L 82.0 217.0 L 82.0 216.0 L 82.0 215.0 L 82.0 214.0 L 83.0 213.0 L 83.0 212.0 L 84.0 211.0 L 84.0 210.0 L 85.0 209.0 L 85.0 208.0 L 86.0 207.0 L 86.0 206.0 L 87.0 205.0 L 88.0 204.0 L 88.0 203.0 L 89.0 202.0 L 90.0 201.0 L 91.0 200.0 L 92.0 199.0 L 93.0 198.0 L 94.0 197.0 L 95.0 196.0 L 96.0 195.0 L 97.0 195.0 L 98.0 194.0 L 99.0 193.0 L 100.0 193.0 L 101.0 192.0 L 102.0 192.0 L 103.0 191.0 L 104.0 191.0 L 105.0 190.0 L 106.0 190.0 L 107.0 190.0 L 108.0 189.0 L 109.0 189.0 L 110.0 189.0 L 111.0 188.0 L 112.0 188.0 L 113.0 188.0 L 114.0 188.0 L 115.0 188.0 L 116.0 188.0 L 117.0 187.0 L 118.0 187.0 L 119.0 187.0 L 120.0 187.0 L 121.0 187.0 L 122.0 187.0 L 123.0 187.0 L 124.0 188.0 L 125.0 188.0 L 126.0 188.0 L 127.0 188.0 L 128.0 188.0 L 129.0 188.0 L 130.0 189.0 L 131.0 189.0 L 132.0 189.0 L 133.0 190.0 L 134.0 190.0 L 135.0 190.0 L 136.0 191.0 L 137.0 191.0 L 138.0 192.0 L 139.0 193.0 L 140.0 193.0 L 141.0 194.0 L 142.0 195.0 L 143.0 196.0 L 144.0 197.0 L 145.0 198.0 L 146.0 199.0 L 147.0 200.0 L 148.0 201.0 L 148.0 202.0 L 149.0 203.0 L 149.0 204.0 L 150.0 205.0 L 151.0 206.0 L 151.0 207.0 L 152.0 208.0 L 152.0 209.0 L 152.0 210.0 L 153.0 211.0 L 153.0 212.0 L 153.0 213.0 L 154.0 214.0 L 154.0 215.0 L 154.0 216.0 L 154.0 217.0 L 155.0 218.0 L 155.0 219.0 L 155.0 220.0 L 155.0 221.0 L 155.0 222.0 L 155.0 223.0 L 155.0 224.0 L 155.0 225.0 L 156.0 226.0 L 156.0 227.0 L 156.0 228.0 L 156.0 229.0 L 156.0 230.0 L 156.0 231.0 L 156.0 232.0 L 156.0 233.0 L 156.0 234.0 L 156.0 235.0 L 156.0 236.0 L 156.0 237.0 L 156.0 238.0 L 156.0 239.0 L 156.0 240.0 L 156.0 241.0 L 156.0 242.0 L 156.0 243.0 L 156.0 244.0 L 156.0 245.0 L 156.0 246.0 L 156.0 247.0 L 156.0 248.0 L 156.0 249.0 L 156.0 250.0 L 156.0 251.0 L 156.0 252.0 L 156.0 253.0 L 156.0 254.0 L 156.0 255.0 L 156.0 256.0 L 156.0 257.0 L 156.0 258.0 L 156.0 259.0 L 156.0 260.0 L 156.0 261.0 L 156.0 262.0 L 156.0 263.0 L 156.0 264.0 L 156.0 265.0 L 156.0 266.0 L 156.0 267.0 L 156.0 268.0 L 156.0 269.0 L 156.0 270.0 L 156.0 271.0 L 156.0 272.0 L 156.0 273.0 L 156.0 274.0 L 156.0 275.0 L 156.0 276.0 L 156.0 277.0 L 156.0 278.0 L 156.0 279.0 L 156.0 280.0 L 156.0 281.0 L 156.0 282.0 L 156.0 283.0 L 156.0 284.0 L 156.0 285.0 L 156.0 286.0 L 156.0 287.0 L 156.0 288.0 L 156.0 289.0 L 156.0 290.0 L 156.0 291.0 L 156.0 292.0 L 156.0 293.0 L 156.0 294.0 L 156.0 295.0 L 156.0 296.0 L 156.0 297.0 L 156.0 298.0 L 156.0 299.0 L 156.0 300.0 L 156.0 301.0 L 156.0 302.0 L 156.0 303.0 L 156.0 304.0 L 156.0 305.0 L 156.0 306.0 L 156.0 307.0 L 156.0 308.0 L 156.0 309.0 L 156.0 310.0 L 156.0 311.0 L 156.0 312.0 L 156.0 313.0 L 156.0 314.0 L 156.0 315.0 L 156.0 316.0 L 156.0 317.0 L 156.0 318.0 L 156.0 319.0 L 156.0 320.0 L 156.0 321.0 L 156.0 322.0 L 156.0 323.0 L 156.0 324.0 L 156.0 325.0 L 156.0 326.0 L 156.0 327.0 L 156.0 328.0 L 156.0 329.0 L 156.0 330.0 L 156.0 331.0 L 156.0 332.0 L 156.0 333.0 L 156.0 334.0 L 156.0 335.0 L 156.0 336.0 L 156.0 337.0 L 157.0 337.0 L 158.0 337.0 L 159.0 337.0 L 160.0 337.0 L 161.0 337.0 L 162.0 337.0 L 163.0 337.0 L 164.0 337.0 L 165.0 337.0 L 166.0 337.0 L 167.0 337.0 L 168.0 337.0 L 169.0 337.0 L 170.0 337.0 L 171.0 337.0 L 172.0 337.0 L 173.0 337.0 L 174.0 337.0 L 175.0 337.0 L 176.0 337.0 L 177.0 337.0 L 178.0 337.0 L 179.0 337.0 L 180.0 337.0 L 181.0 337.0 L 182.0 337.0 L 183.0 337.0 L 184.0 337.0 L 185.0 337.0 L 186.0 337.0 L 187.0 337.0 L 188.0 337.0 L 189.0 337.0 L 190.0 337.0 L 191.0 337.0 L 192.0 337.0 L 193.0 337.0 L 194.0 337.0 L 195.0 337.0 L 196.0 337.0 L 197.0 337.0 L 198.0 337.0 L 199.0 337.0 L 200.0 337.0 L 201.0 337.0 L 202.0 337.0 L 203.0 337.0 L 204.0 337.0 L 205.0 337.0 L 206.0 337.0 L 207.0 337.0 L 208.0 337.0 L 209.0 337.0 L 210.0 337.0 L 211.0 337.0 L 212.0 337.0 L 213.0 337.0 L 214.0 337.0 L 215.0 337.0 L 216.0 337.0 L 217.0 337.0 L 218.0 337.0 L 219.0 337.0 L 220.0 337.0 L 221.0 337.0 L 222.0 337.0 L 223.0 337.0 L 224.0 337.0 L 225.0 337.0 L 226.0 337.0 L 226.0 336.0 L 226.0 335.0 L 226.0 334.0 L 226.0 333.0 L 226.0 332.0 L 226.0 331.0 L 226.0 330.0 L 226.0 329.0 L 226.0 328.0 L 226.0 327.0 L 226.0 326.0 L 226.0 325.0 L 226.0 324.0 L 226.0 323.0 L 226.0 322.0 L 226.0 321.0 L 226.0 320.0 L 226.0 319.0 L 226.0 318.0 L 226.0 317.0 L 226.0 316.0 L 226.0 315.0 L 226.0 314.0 L 226.0 313.0 L 226.0 312.0 L 226.0 311.0 L 226.0 310.0 L 226.0 309.0 L 226.0 308.0 L 226.0 307.0 L 226.0 306.0 L 226.0 305.0 L 226.0 304.0 L 226.0 303.0 L 226.0 302.0 L 226.0 301.0 L 226.0 300.0 L 226.0 299.0 L 226.0 298.0 L 226.0 297.0 L 226.0 296.0 L 226.0 295.0 L 226.0 294.0 L 226.0 293.0 L 226.0 292.0 L 226.0 291.0 L 226.0 290.0 L 226.0 289.0 L 226.0 288.0 L 226.0 287.0 L 226.0 286.0 L 226.0 285.0 L 226.0 284.0 L 226.0 283.0 L 226.0 282.0 L 226.0 281.0 L 226.0 280.0 L 226.0 279.0 L 226.0 278.0 L 226.0 277.0 L 226.0 276.0 L 226.0 275.0 L 226.0 274.0 L 226.0 273.0 L 226.0 272.0 L 226.0 271.0 L 226.0 270.0 L 226.0 269.0 L 226.0 268.0 L 226.0 267.0 L 226.0 266.0 L 226.0 265.0 L 226.0 264.0 L 226.0 263.0 L 226.0 262.0 L 226.0 261.0 L 226.0 260.0 L 226.0 259.0 L 226.0 258.0 L 226.0 257.0 L 226.0 256.0 L 226.0 255.0 L 226.0 254.0 L 226.0 253.0 L 226.0 252.0 L 226.0 251.0 L 226.0 250.0 L 226.0 249.0 L 226.0 248.0 L 226.0 247.0 L 226.0 246.0 L 226.0 245.0 L 226.0 244.0 L 226.0 243.0 L 226.0 242.0 L 226.0 241.0 L 226.0 240.0 L 226.0 239.0 L 226.0 238.0 L 226.0 237.0 L 226.0 236.0 L 226.0 235.0 L 226.0 234.0 L 226.0 233.0 L 226.0 232.0 L 226.0 231.0 L 226.0 230.0 L 226.0 229.0 L 226.0 228.0 L 226.0 227.0 L 226.0 226.0 L 226.0 225.0 L 226.0 224.0 L 226.0 223.0 L 226.0 222.0 L 226.0 221.0 L 226.0 220.0 L 226.0 219.0 L 226.0 218.0 L 226.0 217.0 L 226.0 216.0 L 226.0 215.0 L 226.0 214.0 L 226.0 213.0 L 226.0 212.0 L 226.0 211.0 L 226.0 210.0 L 226.0 209.0 L 226.0 208.0 L 226.0 207.0 L 226.0 206.0 L 226.0 205.0 L 226.0 204.0 L 225.0 203.0 L 225.0 202.0 L 225.0 201.0 L 225.0 200.0 L 225.0 199.0 L 225.0 198.0 L 225.0 197.0 L 225.0 196.0 L 225.0 195.0 L 224.0 194.0 L 224.0 193.0 L 224.0 192.0 L 224.0 191.0 L 224.0 190.0 L 223.0 189.0 L 223.0 188.0 L 223.0 187.0 L 223.0 186.0 L 223.0 185.0 L 222.0 184.0 L 222.0 183.0 L 222.0 182.0 L 221.0 181.0 L 221.0 180.0 L 221.0 179.0 L 220.0 178.0 L 220.0 177.0 L 219.0 176.0 L 219.0 175.0 L 219.0 174.0 L 218.0 173.0 L 218.0 172.0 L 217.0 171.0 L 217.0 170.0 L 216.0 169.0 L 216.0 168.0 L 215.0 167.0 L 214.0 166.0 L 214.0 165.0 L 213.0 164.0 L 212.0 163.0 L 212.0 162.0 L 211.0 161.0 L 210.0 160.0 L 209.0 159.0 L 209.0 158.0 L 208.0 157.0 L 207.0 156.0 L 206.0 155.0 L 205.0 154.0 L 204.0 153.0 L 203.0 152.0 L 202.0 151.0 L 201.0 150.0 L 200.0 149.0 L 199.0 149.0 L 198.0 148.0 L 197.0 147.0 L 196.0 146.0 L 195.0 146.0 L 194.0 145.0 L 193.0 144.0 L 192.0 144.0 L 191.0 143.0 L 190.0 143.0 L 189.0 142.0 L 188.0 141.0 L 187.0 141.0 L 186.0 140.0 L 185.0 140.0 L 184.0 139.0 L 183.0 139.0 L 182.0 139.0 L 181.0 138.0 L 180.0 138.0 L 179.0 137.0 L 178.0 137.0 L 177.0 137.0 L 176.0 136.0 L 175.0 136.0 L 174.0 135.0 L 173.0 135.0 L 172.0 135.0 L 171.0 134.0 L 170.0 134.0 L 169.0 134.0 L 168.0 134.0 L 167.0 133.0 L 166.0 133.0 L 165.0 133.0 L 164.0 133.0 L 163.0 133.0 L 162.0 132.0 L 161.0 132.0 L 160.0 132.0 L 159.0 132.0 L 158.0 132.0 L 157.0 132.0 L 156.0 131.0 L 155.0 131.0 L 154.0 131.0 L 153.0 131.0 L 152.0 131.0 L 151.0 131.0 L 150.0 131.0 L 149.0 131.0 L 148.0 131.0 L 147.0 130.0 L 146.0 130.0 L 145.0 130.0 L 144.0 130.0 L 143.0 130.0 L 142.0 130.0 L 141.0 130.0 L 140.0 130.0 L 139.0 130.0 Z" fill="#373536" fill-rule="evenodd"/><path d="M 471.0 8.0 L 470.0 9.0 L 469.0 9.0 L 468.0 9.0 L 467.0 9.0 L 466.0 9.0 L 465.0 9.0 L 464.0 9.0 L 463.0 9.0 L 462.0 9.0 L 461.0 9.0 L 460.0 9.0 L 459.0 9.0 L 458.0 9.0 L 457.0 9.0 L 456.0 9.0 L 455.0 9.0 L 454.0 9.0 L 453.0 10.0 L 452.0 10.0 L 451.0 10.0 L 450.0 10.0 L 449.0 10.0 L 448.0 10.0 L 447.0 10.0 L 446.0 10.0 L 445.0 11.0 L 444.0 11.0 L 443.0 11.0 L 442.0 11.0 L 441.0 11.0 L 440.0 11.0 L 439.0 11.0 L 438.0 12.0 L 437.0 12.0 L 436.0 12.0 L 435.0 12.0 L 434.0 12.0 L 433.0 13.0 L 432.0 13.0 L 431.0 13.0 L 430.0 13.0 L 429.0 13.0 L 428.0 14.0 L 427.0 14.0 L 426.0 14.0 L 425.0 14.0 L 424.0 15.0 L 423.0 15.0 L 422.0 15.0 L 421.0 15.0 L 420.0 15.0 L 419.0 16.0 L 418.0 16.0 L 417.0 16.0 L 416.0 16.0 L 415.0 17.0 L 414.0 17.0 L 413.0 17.0 L 412.0 18.0 L 411.0 18.0 L 410.0 18.0 L 409.0 19.0 L 408.0 19.0 L 407.0 19.0 L 406.0 19.0 L 405.0 20.0 L 404.0 20.0 L 403.0 20.0 L 402.0 21.0 L 401.0 21.0 L 400.0 22.0 L 399.0 22.0 L 398.0 22.0 L 397.0 23.0 L 396.0 23.0 L 395.0 23.0 L 394.0 24.0 L 393.0 24.0 L 392.0 25.0 L 391.0 25.0 L 390.0 25.0 L 389.0 26.0 L 388.0 26.0 L 387.0 27.0 L 386.0 27.0 L 385.0 27.0 L 384.0 28.0 L 383.0 28.0 L 382.0 29.0 L 381.0 29.0 L 380.0 30.0 L 379.0 30.0 L 378.0 31.0 L 377.0 31.0 L 376.0 32.0 L 375.0 32.0 L 374.0 33.0 L 373.0 33.0 L 372.0 34.0 L 371.0 34.0 L 370.0 35.0 L 369.0 35.0 L 368.0 36.0 L 367.0 36.0 L 366.0 37.0 L 365.0 37.0 L 364.0 38.0 L 363.0 39.0 L 362.0 39.0 L 361.0 40.0 L 360.0 40.0 L 359.0 41.0 L 358.0 42.0 L 357.0 42.0 L 356.0 43.0 L 355.0 43.0 L 354.0 44.0 L 353.0 45.0 L 352.0 45.0 L 351.0 46.0 L 350.0 47.0 L 349.0 47.0 L 348.0 48.0 L 347.0 49.0 L 346.0 49.0 L 345.0 50.0 L 344.0 51.0 L 343.0 52.0 L 342.0 52.0 L 341.0 53.0 L 340.0 54.0 L 339.0 54.0 L 338.0 55.0 L 337.0 56.0 L 336.0 57.0 L 335.0 58.0 L 334.0 58.0 L 333.0 59.0 L 332.0 60.0 L 331.0 61.0 L 330.0 62.0 L 329.0 62.0 L 328.0 63.0 L 327.0 64.0 L 326.0 65.0 L 325.0 66.0 L 324.0 67.0 L 323.0 68.0 L 322.0 69.0 L 321.0 70.0 L 320.0 71.0 L 319.0 72.0 L 318.0 73.0 L 317.0 73.0 L 316.0 74.0 L 315.0 75.0 L 315.0 76.0 L 314.0 77.0 L 313.0 78.0 L 312.0 79.0 L 311.0 80.0 L 310.0 81.0 L 309.0 82.0 L 308.0 83.0 L 307.0 84.0 L 306.0 85.0 L 305.0 86.0 L 304.0 87.0 L 304.0 88.0 L 303.0 89.0 L 302.0 90.0 L 301.0 91.0 L 300.0 92.0 L 300.0 93.0 L 299.0 94.0 L 298.0 95.0 L 297.0 96.0 L 297.0 97.0 L 296.0 98.0 L 295.0 99.0 L 294.0 100.0 L 294.0 101.0 L 293.0 102.0 L 292.0 103.0 L 291.0 104.0 L 291.0 105.0 L 290.0 106.0 L 289.0 107.0 L 289.0 108.0 L 288.0 109.0 L 287.0 110.0 L 287.0 111.0 L 286.0 112.0 L 285.0 113.0 L 285.0 114.0 L 284.0 115.0 L 284.0 116.0 L 283.0 117.0 L 282.0 118.0 L 282.0 119.0 L 281.0 120.0 L 281.0 121.0 L 280.0 122.0 L 280.0 123.0 L 279.0 124.0 L 279.0 125.0 L 278.0 126.0 L 278.0 127.0 L 277.0 128.0 L 276.0 129.0 L 276.0 130.0 L 275.0 131.0 L 275.0 132.0 L 274.0 133.0 L 274.0 134.0 L 273.0 135.0 L 273.0 136.0 L 272.0 137.0 L 272.0 138.0 L 272.0 139.0 L 271.0 140.0 L 271.0 141.0 L 270.0 142.0 L 270.0 143.0 L 269.0 144.0 L 269.0 145.0 L 269.0 146.0 L 268.0 147.0 L 268.0 148.0 L 267.0 149.0 L 267.0 150.0 L 267.0 151.0 L 266.0 152.0 L 266.0 153.0 L 265.0 154.0 L 265.0 155.0 L 265.0 156.0 L 264.0 157.0 L 264.0 158.0 L 264.0 159.0 L 263.0 160.0 L 263.0 161.0 L 263.0 162.0 L 262.0 163.0 L 262.0 164.0 L 262.0 165.0 L 261.0 166.0 L 261.0 167.0 L 261.0 168.0 L 261.0 169.0 L 260.0 170.0 L 260.0 171.0 L 260.0 172.0 L 260.0 173.0 L 259.0 174.0 L 259.0 175.0 L 259.0 176.0 L 258.0 177.0 L 258.0 178.0 L 258.0 179.0 L 258.0 180.0 L 257.0 181.0 L 257.0 182.0 L 257.0 183.0 L 257.0 184.0 L 257.0 185.0 L 256.0 186.0 L 256.0 187.0 L 256.0 188.0 L 256.0 189.0 L 256.0 190.0 L 255.0 191.0 L 255.0 192.0 L 255.0 193.0 L 255.0 194.0 L 255.0 195.0 L 254.0 196.0 L 254.0 197.0 L 254.0 198.0 L 254.0 199.0 L 254.0 200.0 L 254.0 201.0 L 254.0 202.0 L 253.0 203.0 L 253.0 204.0 L 253.0 205.0 L 253.0 206.0 L 253.0 207.0 L 253.0 208.0 L 253.0 209.0 L 253.0 210.0 L 253.0 211.0 L 252.0 212.0 L 252.0 213.0 L 252.0 214.0 L 252.0 215.0 L 252.0 216.0 L 252.0 217.0 L 252.0 218.0 L 252.0 219.0 L 252.0 220.0 L 252.0 221.0 L 252.0 222.0 L 252.0 223.0 L 252.0 224.0 L 252.0 225.0 L 252.0 226.0 L 252.0 227.0 L 252.0 228.0 L 252.0 229.0 L 252.0 230.0 L 252.0 231.0 L 252.0 232.0 L 252.0 233.0 L 252.0 234.0 L 252.0 235.0 L 252.0 236.0 L 252.0 237.0 L 252.0 238.0 L 252.0 239.0 L 252.0 240.0 L 252.0 241.0 L 252.0 242.0 L 252.0 243.0 L 252.0 244.0 L 252.0 245.0 L 252.0 246.0 L 252.0 247.0 L 252.0 248.0 L 252.0 249.0 L 252.0 250.0 L 253.0 251.0 L 253.0 252.0 L 253.0 253.0 L 253.0 254.0 L 253.0 255.0 L 253.0 256.0 L 253.0 257.0 L 253.0 258.0 L 254.0 259.0 L 254.0 260.0 L 254.0 261.0 L 254.0 262.0 L 254.0 263.0 L 254.0 264.0 L 254.0 265.0 L 255.0 266.0 L 255.0 267.0 L 255.0 268.0 L 255.0 269.0 L 255.0 270.0 L 255.0 271.0 L 256.0 272.0 L 256.0 273.0 L 256.0 274.0 L 256.0 275.0 L 256.0 276.0 L 257.0 277.0 L 257.0 278.0 L 257.0 279.0 L 257.0 280.0 L 258.0 281.0 L 258.0 282.0 L 258.0 283.0 L 258.0 284.0 L 259.0 285.0 L 259.0 286.0 L 259.0 287.0 L 259.0 288.0 L 260.0 289.0 L 260.0 290.0 L 260.0 291.0 L 260.0 292.0 L 261.0 293.0 L 261.0 294.0 L 261.0 295.0 L 262.0 296.0 L 262.0 297.0 L 262.0 298.0 L 263.0 299.0 L 263.0 300.0 L 263.0 301.0 L 264.0 302.0 L 264.0 303.0 L 264.0 304.0 L 265.0 305.0 L 265.0 306.0 L 265.0 307.0 L 266.0 308.0 L 266.0 309.0 L 266.0 310.0 L 267.0 311.0 L 267.0 312.0 L 268.0 313.0 L 268.0 314.0 L 269.0 315.0 L 269.0 316.0 L 269.0 317.0 L 270.0 318.0 L 270.0 319.0 L 271.0 320.0 L 271.0 321.0 L 272.0 322.0 L 272.0 323.0 L 272.0 324.0 L 273.0 325.0 L 273.0 326.0 L 274.0 327.0 L 274.0 328.0 L 275.0 329.0 L 275.0 330.0 L 276.0 331.0 L 276.0 332.0 L 277.0 333.0 L 277.0 334.0 L 278.0 335.0 L 279.0 336.0 L 279.0 337.0 L 280.0 338.0 L 280.0 339.0 L 281.0 340.0 L 281.0 341.0 L 282.0 342.0 L 283.0 343.0 L 283.0 344.0 L 284.0 345.0 L 284.0 346.0 L 285.0 347.0 L 286.0 348.0 L 286.0 349.0 L 287.0 350.0 L 288.0 351.0 L 288.0 352.0 L 289.0 353.0 L 290.0 354.0 L 290.0 355.0 L 291.0 356.0 L 292.0 357.0 L 293.0 358.0 L 293.0 359.0 L 294.0 360.0 L 295.0 361.0 L 295.0 362.0 L 296.0 363.0 L 297.0 364.0 L 298.0 365.0 L 299.0 366.0 L 299.0 367.0 L 300.0 368.0 L 301.0 369.0 L 302.0 370.0 L 303.0 371.0 L 303.0 372.0 L 304.0 373.0 L 305.0 374.0 L 306.0 375.0 L 307.0 376.0 L 308.0 377.0 L 309.0 378.0 L 310.0 379.0 L 310.0 380.0 L 311.0 381.0 L 312.0 382.0 L 313.0 383.0 L 314.0 384.0 L 315.0 385.0 L 316.0 386.0 L 317.0 387.0 L 318.0 388.0 L 319.0 389.0 L 320.0 390.0 L 321.0 391.0 L 322.0 392.0 L 323.0 393.0 L 324.0 394.0 L 325.0 395.0 L 326.0 395.0 L 327.0 396.0 L 328.0 397.0 L 329.0 398.0 L 330.0 399.0 L 331.0 400.0 L 332.0 401.0 L 333.0 401.0 L 334.0 402.0 L 335.0 403.0 L 336.0 404.0 L 337.0 405.0 L 338.0 405.0 L 339.0 406.0 L 340.0 407.0 L 341.0 408.0 L 342.0 408.0 L 343.0 409.0 L 344.0 410.0 L 345.0 410.0 L 346.0 411.0 L 347.0 412.0 L 348.0 413.0 L 349.0 413.0 L 350.0 414.0 L 351.0 415.0 L 352.0 415.0 L 353.0 416.0 L 354.0 417.0 L 355.0 417.0 L 356.0 418.0 L 357.0 419.0 L 358.0 419.0 L 359.0 420.0 L 360.0 420.0 L 361.0 421.0 L 362.0 421.0 L 363.0 422.0 L 364.0 423.0 L 365.0 423.0 L 366.0 424.0 L 367.0 424.0 L 368.0 425.0 L 369.0 425.0 L 370.0 426.0 L 371.0 426.0 L 372.0 427.0 L 373.0 427.0 L 374.0 428.0 L 375.0 428.0 L 376.0 429.0 L 377.0 429.0 L 378.0 430.0 L 379.0 430.0 L 380.0 431.0 L 381.0 431.0 L 382.0 432.0 L 383.0 432.0 L 384.0 433.0 L 385.0 433.0 L 386.0 434.0 L 387.0 434.0 L 388.0 434.0 L 389.0 435.0 L 390.0 435.0 L 391.0 436.0 L 392.0 436.0 L 393.0 436.0 L 394.0 437.0 L 395.0 437.0 L 396.0 438.0 L 397.0 438.0 L 398.0 438.0 L 399.0 439.0 L 400.0 439.0 L 401.0 439.0 L 402.0 440.0 L 403.0 440.0 L 404.0 440.0 L 405.0 441.0 L 406.0 441.0 L 407.0 441.0 L 408.0 442.0 L 409.0 442.0 L 410.0 442.0 L 411.0 443.0 L 412.0 443.0 L 413.0 443.0 L 414.0 443.0 L 415.0 444.0 L 416.0 444.0 L 417.0 444.0 L 418.0 444.0 L 419.0 445.0 L 420.0 445.0 L 421.0 445.0 L 422.0 446.0 L 423.0 446.0 L 424.0 446.0 L 425.0 446.0 L 426.0 446.0 L 427.0 447.0 L 428.0 447.0 L 429.0 447.0 L 430.0 447.0 L 431.0 448.0 L 432.0 448.0 L 433.0 448.0 L 434.0 448.0 L 435.0 448.0 L 436.0 448.0 L 437.0 449.0 L 438.0 449.0 L 439.0 449.0 L 440.0 449.0 L 441.0 449.0 L 442.0 449.0 L 443.0 450.0 L 444.0 450.0 L 445.0 450.0 L 446.0 450.0 L 447.0 450.0 L 448.0 450.0 L 449.0 450.0 L 450.0 450.0 L 451.0 451.0 L 452.0 451.0 L 453.0 451.0 L 454.0 451.0 L 455.0 451.0 L 456.0 451.0 L 457.0 451.0 L 458.0 451.0 L 459.0 451.0 L 460.0 451.0 L 461.0 451.0 L 462.0 451.0 L 463.0 452.0 L 464.0 452.0 L 465.0 452.0 L 466.0 452.0 L 467.0 452.0 L 468.0 452.0 L 469.0 452.0 L 470.0 452.0 L 471.0 452.0 L 472.0 452.0 L 473.0 452.0 L 474.0 452.0 L 475.0 452.0 L 476.0 452.0 L 477.0 452.0 L 478.0 452.0 L 479.0 452.0 L 480.0 452.0 L 481.0 452.0 L 482.0 452.0 L 483.0 452.0 L 484.0 452.0 L 485.0 452.0 L 486.0 452.0 L 487.0 452.0 L 488.0 452.0 L 489.0 452.0 L 490.0 452.0 L 491.0 452.0 L 492.0 452.0 L 493.0 451.0 L 494.0 451.0 L 495.0 451.0 L 496.0 451.0 L 497.0 451.0 L 498.0 451.0 L 499.0 451.0 L 500.0 451.0 L 501.0 451.0 L 502.0 451.0 L 503.0 450.0 L 504.0 450.0 L 505.0 450.0 L 506.0 450.0 L 507.0 450.0 L 508.0 450.0 L 509.0 450.0 L 510.0 450.0 L 511.0 449.0 L 512.0 449.0 L 513.0 449.0 L 514.0 449.0 L 515.0 449.0 L 516.0 449.0 L 517.0 448.0 L 518.0 448.0 L 519.0 448.0 L 520.0 448.0 L 521.0 448.0 L 522.0 447.0 L 523.0 447.0 L 524.0 447.0 L 525.0 447.0 L 526.0 447.0 L 527.0 446.0 L 528.0 446.0 L 529.0 446.0 L 530.0 446.0 L 531.0 445.0 L 532.0 445.0 L 533.0 445.0 L 534.0 445.0 L 535.0 444.0 L 536.0 444.0 L 537.0 444.0 L 538.0 444.0 L 539.0 443.0 L 540.0 443.0 L 541.0 443.0 L 542.0 442.0 L 543.0 442.0 L 544.0 442.0 L 545.0 441.0 L 546.0 441.0 L 547.0 441.0 L 548.0 440.0 L 549.0 440.0 L 550.0 440.0 L 551.0 439.0 L 552.0 439.0 L 553.0 439.0 L 554.0 438.0 L 555.0 438.0 L 556.0 437.0 L 557.0 437.0 L 558.0 437.0 L 559.0 436.0 L 560.0 436.0 L 561.0 435.0 L 562.0 435.0 L 563.0 435.0 L 564.0 434.0 L 565.0 434.0 L 566.0 433.0 L 567.0 433.0 L 568.0 432.0 L 569.0 432.0 L 570.0 431.0 L 571.0 431.0 L 572.0 430.0 L 573.0 430.0 L 574.0 429.0 L 575.0 429.0 L 576.0 428.0 L 577.0 428.0 L 578.0 427.0 L 579.0 427.0 L 580.0 426.0 L 581.0 426.0 L 582.0 425.0 L 583.0 425.0 L 584.0 424.0 L 585.0 424.0 L 586.0 423.0 L 587.0 422.0 L 588.0 422.0 L 589.0 421.0 L 590.0 421.0 L 591.0 420.0 L 592.0 419.0 L 593.0 419.0 L 594.0 418.0 L 595.0 418.0 L 596.0 417.0 L 597.0 416.0 L 598.0 416.0 L 599.0 415.0 L 600.0 414.0 L 601.0 414.0 L 602.0 413.0 L 603.0 412.0 L 604.0 412.0 L 605.0 411.0 L 606.0 410.0 L 607.0 409.0 L 608.0 409.0 L 609.0 408.0 L 610.0 407.0 L 611.0 406.0 L 612.0 406.0 L 613.0 405.0 L 614.0 404.0 L 615.0 403.0 L 616.0 402.0 L 617.0 402.0 L 618.0 401.0 L 619.0 400.0 L 620.0 399.0 L 621.0 398.0 L 622.0 397.0 L 623.0 397.0 L 624.0 396.0 L 625.0 395.0 L 626.0 394.0 L 627.0 393.0 L 628.0 392.0 L 629.0 391.0 L 630.0 390.0 L 631.0 389.0 L 632.0 388.0 L 633.0 387.0 L 634.0 386.0 L 635.0 385.0 L 636.0 384.0 L 637.0 383.0 L 638.0 382.0 L 639.0 381.0 L 640.0 380.0 L 641.0 379.0 L 642.0 378.0 L 643.0 377.0 L 643.0 376.0 L 644.0 375.0 L 645.0 374.0 L 646.0 373.0 L 647.0 372.0 L 648.0 371.0 L 649.0 370.0 L 649.0 369.0 L 650.0 368.0 L 651.0 367.0 L 652.0 366.0 L 652.0 365.0 L 653.0 364.0 L 654.0 363.0 L 655.0 362.0 L 656.0 361.0 L 656.0 360.0 L 657.0 359.0 L 658.0 358.0 L 658.0 357.0 L 659.0 356.0 L 660.0 355.0 L 660.0 354.0 L 661.0 353.0 L 662.0 352.0 L 663.0 351.0 L 663.0 350.0 L 664.0 349.0 L 664.0 348.0 L 665.0 347.0 L 666.0 346.0 L 666.0 345.0 L 667.0 344.0 L 668.0 343.0 L 668.0 342.0 L 669.0 341.0 L 669.0 340.0 L 670.0 339.0 L 670.0 338.0 L 671.0 337.0 L 672.0 336.0 L 672.0 335.0 L 673.0 334.0 L 673.0 333.0 L 674.0 332.0 L 674.0 331.0 L 675.0 330.0 L 675.0 329.0 L 676.0 328.0 L 676.0 327.0 L 677.0 326.0 L 677.0 325.0 L 677.0 324.0 L 678.0 323.0 L 678.0 322.0 L 679.0 321.0 L 679.0 320.0 L 680.0 319.0 L 680.0 318.0 L 681.0 317.0 L 681.0 316.0 L 681.0 315.0 L 682.0 314.0 L 682.0 313.0 L 683.0 312.0 L 683.0 311.0 L 683.0 310.0 L 684.0 309.0 L 684.0 308.0 L 685.0 307.0 L 685.0 306.0 L 685.0 305.0 L 686.0 304.0 L 686.0 303.0 L 686.0 302.0 L 687.0 301.0 L 687.0 300.0 L 687.0 299.0 L 688.0 298.0 L 688.0 297.0 L 688.0 296.0 L 689.0 295.0 L 689.0 294.0 L 689.0 293.0 L 690.0 292.0 L 690.0 291.0 L 690.0 290.0 L 690.0 289.0 L 691.0 288.0 L 691.0 287.0 L 691.0 286.0 L 691.0 285.0 L 692.0 284.0 L 692.0 283.0 L 692.0 282.0 L 692.0 281.0 L 693.0 280.0 L 693.0 279.0 L 693.0 278.0 L 693.0 277.0 L 693.0 276.0 L 694.0 275.0 L 694.0 274.0 L 694.0 273.0 L 694.0 272.0 L 694.0 271.0 L 695.0 270.0 L 695.0 269.0 L 695.0 268.0 L 695.0 267.0 L 695.0 266.0 L 695.0 265.0 L 696.0 264.0 L 696.0 263.0 L 696.0 262.0 L 696.0 261.0 L 696.0 260.0 L 696.0 259.0 L 696.0 258.0 L 697.0 257.0 L 697.0 256.0 L 697.0 255.0 L 697.0 254.0 L 697.0 253.0 L 697.0 252.0 L 697.0 251.0 L 697.0 250.0 L 697.0 249.0 L 697.0 248.0 L 697.0 247.0 L 698.0 246.0 L 698.0 245.0 L 698.0 244.0 L 698.0 243.0 L 698.0 242.0 L 698.0 241.0 L 698.0 240.0 L 698.0 239.0 L 698.0 238.0 L 698.0 237.0 L 698.0 236.0 L 698.0 235.0 L 698.0 234.0 L 698.0 233.0 L 698.0 232.0 L 698.0 231.0 L 698.0 230.0 L 698.0 229.0 L 698.0 228.0 L 698.0 227.0 L 698.0 226.0 L 698.0 225.0 L 698.0 224.0 L 698.0 223.0 L 698.0 222.0 L 698.0 221.0 L 698.0 220.0 L 698.0 219.0 L 698.0 218.0 L 698.0 217.0 L 698.0 216.0 L 698.0 215.0 L 697.0 214.0 L 697.0 213.0 L 697.0 212.0 L 697.0 211.0 L 697.0 210.0 L 697.0 209.0 L 697.0 208.0 L 697.0 207.0 L 697.0 206.0 L 697.0 205.0 L 696.0 204.0 L 696.0 203.0 L 696.0 202.0 L 696.0 201.0 L 696.0 200.0 L 696.0 199.0 L 695.0 198.0 L 695.0 197.0 L 695.0 196.0 L 695.0 195.0 L 695.0 194.0 L 695.0 193.0 L 694.0 192.0 L 694.0 191.0 L 694.0 190.0 L 694.0 189.0 L 694.0 188.0 L 694.0 187.0 L 693.0 186.0 L 693.0 185.0 L 693.0 184.0 L 693.0 183.0 L 692.0 182.0 L 692.0 181.0 L 692.0 180.0 L 692.0 179.0 L 692.0 178.0 L 691.0 177.0 L 691.0 176.0 L 691.0 175.0 L 690.0 174.0 L 690.0 173.0 L 690.0 172.0 L 690.0 171.0 L 689.0 170.0 L 689.0 169.0 L 689.0 168.0 L 688.0 167.0 L 688.0 166.0 L 688.0 165.0 L 688.0 164.0 L 687.0 163.0 L 687.0 162.0 L 687.0 161.0 L 686.0 160.0 L 686.0 159.0 L 686.0 158.0 L 685.0 157.0 L 685.0 156.0 L 685.0 155.0 L 684.0 154.0 L 684.0 153.0 L 683.0 152.0 L 683.0 151.0 L 683.0 150.0 L 682.0 149.0 L 682.0 148.0 L 681.0 147.0 L 681.0 146.0 L 681.0 145.0 L 680.0 144.0 L 680.0 143.0 L 679.0 142.0 L 679.0 141.0 L 678.0 140.0 L 678.0 139.0 L 678.0 138.0 L 677.0 137.0 L 677.0 136.0 L 676.0 135.0 L 676.0 134.0 L 675.0 133.0 L 675.0 132.0 L 674.0 131.0 L 674.0 130.0 L 673.0 129.0 L 673.0 128.0 L 672.0 127.0 L 672.0 126.0 L 671.0 125.0 L 671.0 124.0 L 670.0 123.0 L 669.0 122.0 L 669.0 121.0 L 668.0 120.0 L 668.0 119.0 L 667.0 118.0 L 667.0 117.0 L 666.0 116.0 L 665.0 115.0 L 665.0 114.0 L 664.0 113.0 L 664.0 112.0 L 663.0 111.0 L 662.0 110.0 L 662.0 109.0 L 661.0 108.0 L 660.0 107.0 L 660.0 106.0 L 659.0 105.0 L 658.0 104.0 L 658.0 103.0 L 657.0 102.0 L 656.0 101.0 L 656.0 100.0 L 655.0 99.0 L 654.0 98.0 L 653.0 97.0 L 652.0 96.0 L 652.0 95.0 L 651.0 94.0 L 650.0 93.0 L 649.0 92.0 L 649.0 91.0 L 648.0 90.0 L 647.0 89.0 L 646.0 88.0 L 645.0 87.0 L 644.0 86.0 L 644.0 85.0 L 643.0 84.0 L 642.0 83.0 L 641.0 82.0 L 640.0 81.0 L 639.0 80.0 L 638.0 79.0 L 637.0 78.0 L 636.0 77.0 L 635.0 76.0 L 634.0 75.0 L 633.0 74.0 L 632.0 73.0 L 631.0 72.0 L 630.0 71.0 L 629.0 70.0 L 628.0 69.0 L 627.0 68.0 L 626.0 67.0 L 625.0 66.0 L 624.0 65.0 L 623.0 64.0 L 622.0 63.0 L 621.0 63.0 L 620.0 62.0 L 619.0 61.0 L 618.0 60.0 L 617.0 59.0 L 616.0 58.0 L 615.0 58.0 L 614.0 57.0 L 613.0 56.0 L 612.0 55.0 L 611.0 54.0 L 610.0 54.0 L 609.0 53.0 L 608.0 52.0 L 607.0 51.0 L 606.0 51.0 L 605.0 50.0 L 604.0 49.0 L 603.0 49.0 L 602.0 48.0 L 601.0 47.0 L 600.0 46.0 L 599.0 46.0 L 598.0 45.0 L 597.0 45.0 L 596.0 44.0 L 595.0 43.0 L 594.0 43.0 L 593.0 42.0 L 592.0 41.0 L 591.0 41.0 L 590.0 40.0 L 589.0 40.0 L 588.0 39.0 L 587.0 38.0 L 586.0 38.0 L 585.0 37.0 L 584.0 37.0 L 583.0 36.0 L 582.0 36.0 L 581.0 35.0 L 580.0 34.0 L 579.0 34.0 L 578.0 33.0 L 577.0 33.0 L 576.0 32.0 L 575.0 32.0 L 574.0 31.0 L 573.0 31.0 L 572.0 30.0 L 571.0 30.0 L 570.0 29.0 L 569.0 29.0 L 568.0 28.0 L 567.0 28.0 L 566.0 28.0 L 565.0 27.0 L 564.0 27.0 L 563.0 26.0 L 562.0 26.0 L 561.0 25.0 L 560.0 25.0 L 559.0 25.0 L 558.0 24.0 L 557.0 24.0 L 556.0 23.0 L 555.0 23.0 L 554.0 23.0 L 553.0 22.0 L 552.0 22.0 L 551.0 21.0 L 550.0 21.0 L 549.0 21.0 L 548.0 20.0 L 547.0 20.0 L 546.0 20.0 L 545.0 19.0 L 544.0 19.0 L 543.0 19.0 L 542.0 18.0 L 541.0 18.0 L 540.0 18.0 L 539.0 18.0 L 538.0 17.0 L 537.0 17.0 L 536.0 17.0 L 535.0 16.0 L 534.0 16.0 L 533.0 16.0 L 532.0 15.0 L 531.0 15.0 L 530.0 15.0 L 529.0 15.0 L 528.0 15.0 L 527.0 14.0 L 526.0 14.0 L 525.0 14.0 L 524.0 14.0 L 523.0 13.0 L 522.0 13.0 L 521.0 13.0 L 520.0 13.0 L 519.0 13.0 L 518.0 12.0 L 517.0 12.0 L 516.0 12.0 L 515.0 12.0 L 514.0 12.0 L 513.0 11.0 L 512.0 11.0 L 511.0 11.0 L 510.0 11.0 L 509.0 11.0 L 508.0 11.0 L 507.0 10.0 L 506.0 10.0 L 505.0 10.0 L 504.0 10.0 L 503.0 10.0 L 502.0 10.0 L 501.0 10.0 L 500.0 10.0 L 499.0 9.0 L 498.0 9.0 L 497.0 9.0 L 496.0 9.0 L 495.0 9.0 L 494.0 9.0 L 493.0 9.0 L 492.0 9.0 L 491.0 9.0 L 490.0 9.0 L 489.0 9.0 L 488.0 9.0 L 487.0 9.0 L 486.0 9.0 L 485.0 9.0 L 484.0 9.0 L 483.0 9.0 L 482.0 8.0 L 481.0 8.0 L 480.0 8.0 L 479.0 8.0 L 478.0 8.0 L 477.0 8.0 L 476.0 8.0 L 475.0 8.0 L 474.0 8.0 L 473.0 8.0 L 472.0 8.0 Z M 629.0 253.0 L 630.0 252.0 L 631.0 252.0 L 632.0 252.0 L 633.0 252.0 L 634.0 252.0 L 635.0 252.0 L 636.0 252.0 L 637.0 252.0 L 638.0 253.0 L 639.0 253.0 L 640.0 253.0 L 641.0 253.0 L 642.0 253.0 L 643.0 254.0 L 644.0 254.0 L 645.0 254.0 L 646.0 255.0 L 647.0 255.0 L 648.0 255.0 L 649.0 256.0 L 650.0 257.0 L 651.0 257.0 L 652.0 258.0 L 653.0 259.0 L 654.0 259.0 L 655.0 260.0 L 656.0 261.0 L 657.0 262.0 L 658.0 263.0 L 659.0 264.0 L 660.0 265.0 L 661.0 266.0 L 661.0 267.0 L 662.0 268.0 L 663.0 269.0 L 663.0 270.0 L 664.0 271.0 L 664.0 272.0 L 665.0 273.0 L 665.0 274.0 L 666.0 275.0 L 666.0 276.0 L 666.0 277.0 L 666.0 278.0 L 667.0 279.0 L 667.0 280.0 L 667.0 281.0 L 667.0 282.0 L 667.0 283.0 L 667.0 284.0 L 667.0 285.0 L 667.0 286.0 L 667.0 287.0 L 667.0 288.0 L 667.0 289.0 L 667.0 290.0 L 667.0 291.0 L 667.0 292.0 L 667.0 293.0 L 666.0 294.0 L 666.0 295.0 L 666.0 296.0 L 666.0 297.0 L 665.0 298.0 L 665.0 299.0 L 664.0 300.0 L 664.0 301.0 L 663.0 302.0 L 663.0 303.0 L 662.0 304.0 L 662.0 305.0 L 661.0 306.0 L 660.0 307.0 L 660.0 308.0 L 659.0 309.0 L 658.0 310.0 L 657.0 311.0 L 656.0 312.0 L 655.0 313.0 L 654.0 313.0 L 653.0 314.0 L 652.0 315.0 L 651.0 316.0 L 650.0 316.0 L 649.0 317.0 L 648.0 317.0 L 647.0 318.0 L 646.0 318.0 L 645.0 319.0 L 644.0 319.0 L 643.0 319.0 L 642.0 320.0 L 641.0 320.0 L 640.0 320.0 L 639.0 320.0 L 638.0 320.0 L 637.0 320.0 L 636.0 321.0 L 635.0 321.0 L 634.0 321.0 L 633.0 321.0 L 632.0 321.0 L 631.0 321.0 L 630.0 320.0 L 629.0 320.0 L 628.0 320.0 L 627.0 320.0 L 626.0 320.0 L 625.0 320.0 L 624.0 319.0 L 623.0 319.0 L 622.0 319.0 L 621.0 318.0 L 620.0 318.0 L 619.0 318.0 L 618.0 317.0 L 617.0 316.0 L 616.0 316.0 L 615.0 315.0 L 614.0 315.0 L 613.0 314.0 L 612.0 313.0 L 611.0 312.0 L 610.0 311.0 L 609.0 310.0 L 608.0 309.0 L 607.0 308.0 L 606.0 307.0 L 606.0 306.0 L 605.0 305.0 L 604.0 304.0 L 604.0 303.0 L 603.0 302.0 L 603.0 301.0 L 603.0 300.0 L 602.0 299.0 L 602.0 298.0 L 601.0 297.0 L 601.0 296.0 L 601.0 295.0 L 601.0 294.0 L 600.0 293.0 L 600.0 292.0 L 600.0 291.0 L 600.0 290.0 L 600.0 289.0 L 600.0 288.0 L 600.0 287.0 L 600.0 286.0 L 600.0 285.0 L 600.0 284.0 L 600.0 283.0 L 600.0 282.0 L 600.0 281.0 L 600.0 280.0 L 601.0 279.0 L 601.0 278.0 L 601.0 277.0 L 602.0 276.0 L 602.0 275.0 L 602.0 274.0 L 603.0 273.0 L 603.0 272.0 L 604.0 271.0 L 604.0 270.0 L 605.0 269.0 L 606.0 268.0 L 606.0 267.0 L 607.0 266.0 L 608.0 265.0 L 609.0 264.0 L 610.0 263.0 L 611.0 262.0 L 612.0 261.0 L 613.0 260.0 L 614.0 259.0 L 615.0 258.0 L 616.0 258.0 L 617.0 257.0 L 618.0 257.0 L 619.0 256.0 L 620.0 256.0 L 621.0 255.0 L 622.0 255.0 L 623.0 254.0 L 624.0 254.0 L 625.0 254.0 L 626.0 253.0 L 627.0 253.0 L 628.0 253.0 Z M 404.0 146.0 L 405.0 145.0 L 406.0 145.0 L 407.0 145.0 L 408.0 145.0 L 409.0 145.0 L 410.0 145.0 L 411.0 145.0 L 412.0 145.0 L 413.0 145.0 L 414.0 145.0 L 415.0 145.0 L 416.0 145.0 L 417.0 145.0 L 418.0 145.0 L 419.0 145.0 L 420.0 145.0 L 421.0 145.0 L 422.0 145.0 L 423.0 145.0 L 424.0 145.0 L 425.0 145.0 L 426.0 145.0 L 427.0 145.0 L 428.0 146.0 L 429.0 146.0 L 430.0 146.0 L 431.0 146.0 L 432.0 147.0 L 433.0 147.0 L 434.0 147.0 L 435.0 147.0 L 436.0 148.0 L 437.0 148.0 L 438.0 148.0 L 439.0 149.0 L 440.0 149.0 L 441.0 149.0 L 442.0 150.0 L 443.0 150.0 L 444.0 151.0 L 445.0 151.0 L 446.0 152.0 L 447.0 152.0 L 448.0 153.0 L 449.0 154.0 L 450.0 154.0 L 451.0 155.0 L 452.0 156.0 L 453.0 156.0 L 454.0 157.0 L 455.0 158.0 L 456.0 159.0 L 457.0 159.0 L 458.0 160.0 L 459.0 161.0 L 460.0 162.0 L 461.0 163.0 L 461.0 164.0 L 462.0 165.0 L 463.0 166.0 L 464.0 167.0 L 465.0 168.0 L 465.0 169.0 L 466.0 170.0 L 466.0 171.0 L 467.0 172.0 L 468.0 173.0 L 469.0 173.0 L 469.0 172.0 L 470.0 171.0 L 471.0 170.0 L 472.0 169.0 L 473.0 168.0 L 474.0 167.0 L 475.0 166.0 L 476.0 165.0 L 477.0 164.0 L 478.0 163.0 L 479.0 162.0 L 480.0 161.0 L 481.0 160.0 L 482.0 159.0 L 483.0 158.0 L 484.0 158.0 L 485.0 157.0 L 486.0 156.0 L 487.0 155.0 L 488.0 155.0 L 489.0 154.0 L 490.0 153.0 L 491.0 153.0 L 492.0 152.0 L 493.0 152.0 L 494.0 151.0 L 495.0 151.0 L 496.0 150.0 L 497.0 150.0 L 498.0 149.0 L 499.0 149.0 L 500.0 148.0 L 501.0 148.0 L 502.0 148.0 L 503.0 147.0 L 504.0 147.0 L 505.0 147.0 L 506.0 146.0 L 507.0 146.0 L 508.0 146.0 L 509.0 146.0 L 510.0 146.0 L 511.0 145.0 L 512.0 145.0 L 513.0 145.0 L 514.0 145.0 L 515.0 145.0 L 516.0 145.0 L 517.0 145.0 L 518.0 145.0 L 519.0 145.0 L 520.0 145.0 L 521.0 145.0 L 522.0 145.0 L 523.0 145.0 L 524.0 145.0 L 525.0 145.0 L 526.0 145.0 L 527.0 145.0 L 528.0 145.0 L 529.0 145.0 L 530.0 145.0 L 531.0 145.0 L 532.0 145.0 L 533.0 146.0 L 534.0 146.0 L 535.0 146.0 L 536.0 146.0 L 537.0 146.0 L 538.0 147.0 L 539.0 147.0 L 540.0 147.0 L 541.0 147.0 L 542.0 148.0 L 543.0 148.0 L 544.0 149.0 L 545.0 149.0 L 546.0 149.0 L 547.0 150.0 L 548.0 150.0 L 549.0 151.0 L 550.0 151.0 L 551.0 152.0 L 552.0 152.0 L 553.0 153.0 L 554.0 153.0 L 555.0 154.0 L 556.0 155.0 L 557.0 155.0 L 558.0 156.0 L 559.0 157.0 L 560.0 158.0 L 561.0 158.0 L 562.0 159.0 L 563.0 160.0 L 564.0 161.0 L 565.0 162.0 L 566.0 163.0 L 567.0 164.0 L 568.0 165.0 L 568.0 166.0 L 569.0 167.0 L 570.0 168.0 L 571.0 169.0 L 571.0 170.0 L 572.0 171.0 L 572.0 172.0 L 573.0 173.0 L 573.0 174.0 L 574.0 175.0 L 574.0 176.0 L 575.0 177.0 L 575.0 178.0 L 576.0 179.0 L 576.0 180.0 L 577.0 181.0 L 577.0 182.0 L 577.0 183.0 L 577.0 184.0 L 578.0 185.0 L 578.0 186.0 L 578.0 187.0 L 579.0 188.0 L 579.0 189.0 L 579.0 190.0 L 579.0 191.0 L 579.0 192.0 L 580.0 193.0 L 580.0 194.0 L 580.0 195.0 L 580.0 196.0 L 580.0 197.0 L 580.0 198.0 L 580.0 199.0 L 580.0 200.0 L 581.0 201.0 L 581.0 202.0 L 581.0 203.0 L 581.0 204.0 L 581.0 205.0 L 581.0 206.0 L 581.0 207.0 L 581.0 208.0 L 581.0 209.0 L 581.0 210.0 L 581.0 211.0 L 581.0 212.0 L 581.0 213.0 L 581.0 214.0 L 581.0 215.0 L 581.0 216.0 L 581.0 217.0 L 581.0 218.0 L 581.0 219.0 L 581.0 220.0 L 581.0 221.0 L 581.0 222.0 L 581.0 223.0 L 581.0 224.0 L 581.0 225.0 L 581.0 226.0 L 581.0 227.0 L 581.0 228.0 L 581.0 229.0 L 581.0 230.0 L 581.0 231.0 L 581.0 232.0 L 581.0 233.0 L 581.0 234.0 L 581.0 235.0 L 581.0 236.0 L 581.0 237.0 L 581.0 238.0 L 581.0 239.0 L 581.0 240.0 L 581.0 241.0 L 581.0 242.0 L 581.0 243.0 L 581.0 244.0 L 581.0 245.0 L 581.0 246.0 L 581.0 247.0 L 581.0 248.0 L 581.0 249.0 L 581.0 250.0 L 581.0 251.0 L 581.0 252.0 L 581.0 253.0 L 581.0 254.0 L 581.0 255.0 L 581.0 256.0 L 581.0 257.0 L 581.0 258.0 L 581.0 259.0 L 581.0 260.0 L 581.0 261.0 L 581.0 262.0 L 581.0 263.0 L 581.0 264.0 L 581.0 265.0 L 581.0 266.0 L 581.0 267.0 L 581.0 268.0 L 581.0 269.0 L 581.0 270.0 L 581.0 271.0 L 581.0 272.0 L 581.0 273.0 L 581.0 274.0 L 581.0 275.0 L 581.0 276.0 L 581.0 277.0 L 581.0 278.0 L 581.0 279.0 L 581.0 280.0 L 581.0 281.0 L 581.0 282.0 L 581.0 283.0 L 581.0 284.0 L 581.0 285.0 L 581.0 286.0 L 581.0 287.0 L 581.0 288.0 L 581.0 289.0 L 581.0 290.0 L 581.0 291.0 L 581.0 292.0 L 581.0 293.0 L 581.0 294.0 L 581.0 295.0 L 581.0 296.0 L 581.0 297.0 L 581.0 298.0 L 581.0 299.0 L 581.0 300.0 L 581.0 301.0 L 581.0 302.0 L 581.0 303.0 L 581.0 304.0 L 581.0 305.0 L 581.0 306.0 L 581.0 307.0 L 581.0 308.0 L 581.0 309.0 L 581.0 310.0 L 581.0 311.0 L 581.0 312.0 L 581.0 313.0 L 581.0 314.0 L 581.0 315.0 L 581.0 316.0 L 581.0 317.0 L 580.0 318.0 L 579.0 319.0 L 578.0 319.0 L 577.0 319.0 L 576.0 319.0 L 575.0 319.0 L 574.0 319.0 L 573.0 319.0 L 572.0 319.0 L 571.0 319.0 L 570.0 319.0 L 569.0 319.0 L 568.0 319.0 L 567.0 319.0 L 566.0 319.0 L 565.0 319.0 L 564.0 319.0 L 563.0 319.0 L 562.0 319.0 L 561.0 319.0 L 560.0 319.0 L 559.0 319.0 L 558.0 319.0 L 557.0 319.0 L 556.0 319.0 L 555.0 319.0 L 554.0 319.0 L 553.0 319.0 L 552.0 319.0 L 551.0 319.0 L 550.0 319.0 L 549.0 319.0 L 548.0 319.0 L 547.0 319.0 L 546.0 319.0 L 545.0 319.0 L 544.0 319.0 L 543.0 319.0 L 542.0 319.0 L 541.0 319.0 L 540.0 319.0 L 539.0 319.0 L 538.0 319.0 L 537.0 319.0 L 536.0 319.0 L 535.0 319.0 L 534.0 319.0 L 533.0 319.0 L 532.0 319.0 L 531.0 319.0 L 530.0 319.0 L 529.0 319.0 L 528.0 319.0 L 527.0 319.0 L 526.0 318.0 L 525.0 317.0 L 525.0 316.0 L 525.0 315.0 L 525.0 314.0 L 525.0 313.0 L 525.0 312.0 L 525.0 311.0 L 525.0 310.0 L 525.0 309.0 L 525.0 308.0 L 525.0 307.0 L 525.0 306.0 L 525.0 305.0 L 525.0 304.0 L 525.0 303.0 L 525.0 302.0 L 525.0 301.0 L 525.0 300.0 L 525.0 299.0 L 525.0 298.0 L 525.0 297.0 L 525.0 296.0 L 525.0 295.0 L 525.0 294.0 L 525.0 293.0 L 525.0 292.0 L 525.0 291.0 L 525.0 290.0 L 525.0 289.0 L 525.0 288.0 L 525.0 287.0 L 525.0 286.0 L 525.0 285.0 L 525.0 284.0 L 525.0 283.0 L 525.0 282.0 L 525.0 281.0 L 525.0 280.0 L 525.0 279.0 L 525.0 278.0 L 525.0 277.0 L 525.0 276.0 L 525.0 275.0 L 525.0 274.0 L 525.0 273.0 L 525.0 272.0 L 525.0 271.0 L 525.0 270.0 L 525.0 269.0 L 525.0 268.0 L 525.0 267.0 L 525.0 266.0 L 525.0 265.0 L 525.0 264.0 L 525.0 263.0 L 525.0 262.0 L 525.0 261.0 L 525.0 260.0 L 525.0 259.0 L 525.0 258.0 L 525.0 257.0 L 525.0 256.0 L 525.0 255.0 L 525.0 254.0 L 525.0 253.0 L 525.0 252.0 L 525.0 251.0 L 525.0 250.0 L 525.0 249.0 L 525.0 248.0 L 525.0 247.0 L 525.0 246.0 L 525.0 245.0 L 525.0 244.0 L 525.0 243.0 L 525.0 242.0 L 525.0 241.0 L 525.0 240.0 L 525.0 239.0 L 525.0 238.0 L 525.0 237.0 L 525.0 236.0 L 525.0 235.0 L 525.0 234.0 L 525.0 233.0 L 525.0 232.0 L 525.0 231.0 L 525.0 230.0 L 525.0 229.0 L 525.0 228.0 L 525.0 227.0 L 525.0 226.0 L 525.0 225.0 L 525.0 224.0 L 525.0 223.0 L 525.0 222.0 L 525.0 221.0 L 525.0 220.0 L 525.0 219.0 L 525.0 218.0 L 525.0 217.0 L 525.0 216.0 L 525.0 215.0 L 524.0 214.0 L 524.0 213.0 L 524.0 212.0 L 524.0 211.0 L 523.0 210.0 L 523.0 209.0 L 523.0 208.0 L 522.0 207.0 L 522.0 206.0 L 521.0 205.0 L 520.0 204.0 L 520.0 203.0 L 519.0 202.0 L 518.0 201.0 L 517.0 200.0 L 516.0 199.0 L 515.0 198.0 L 514.0 198.0 L 513.0 197.0 L 512.0 196.0 L 511.0 196.0 L 510.0 196.0 L 509.0 195.0 L 508.0 195.0 L 507.0 194.0 L 506.0 194.0 L 505.0 194.0 L 504.0 194.0 L 503.0 194.0 L 502.0 194.0 L 501.0 194.0 L 500.0 194.0 L 499.0 194.0 L 498.0 194.0 L 497.0 194.0 L 496.0 194.0 L 495.0 194.0 L 494.0 194.0 L 493.0 194.0 L 492.0 195.0 L 491.0 195.0 L 490.0 195.0 L 489.0 196.0 L 488.0 196.0 L 487.0 197.0 L 486.0 198.0 L 485.0 198.0 L 484.0 199.0 L 483.0 200.0 L 482.0 201.0 L 482.0 202.0 L 481.0 203.0 L 480.0 204.0 L 480.0 205.0 L 479.0 206.0 L 479.0 207.0 L 478.0 208.0 L 478.0 209.0 L 478.0 210.0 L 477.0 211.0 L 477.0 212.0 L 477.0 213.0 L 477.0 214.0 L 477.0 215.0 L 477.0 216.0 L 476.0 217.0 L 476.0 218.0 L 476.0 219.0 L 476.0 220.0 L 476.0 221.0 L 476.0 222.0 L 476.0 223.0 L 476.0 224.0 L 476.0 225.0 L 476.0 226.0 L 476.0 227.0 L 476.0 228.0 L 476.0 229.0 L 476.0 230.0 L 476.0 231.0 L 476.0 232.0 L 476.0 233.0 L 476.0 234.0 L 476.0 235.0 L 476.0 236.0 L 476.0 237.0 L 476.0 238.0 L 476.0 239.0 L 476.0 240.0 L 476.0 241.0 L 476.0 242.0 L 476.0 243.0 L 476.0 244.0 L 476.0 245.0 L 476.0 246.0 L 476.0 247.0 L 476.0 248.0 L 476.0 249.0 L 476.0 250.0 L 476.0 251.0 L 476.0 252.0 L 476.0 253.0 L 476.0 254.0 L 476.0 255.0 L 476.0 256.0 L 476.0 257.0 L 476.0 258.0 L 476.0 259.0 L 476.0 260.0 L 476.0 261.0 L 476.0 262.0 L 476.0 263.0 L 476.0 264.0 L 476.0 265.0 L 476.0 266.0 L 476.0 267.0 L 476.0 268.0 L 476.0 269.0 L 476.0 270.0 L 476.0 271.0 L 476.0 272.0 L 476.0 273.0 L 476.0 274.0 L 476.0 275.0 L 476.0 276.0 L 476.0 277.0 L 476.0 278.0 L 476.0 279.0 L 476.0 280.0 L 476.0 281.0 L 476.0 282.0 L 476.0 283.0 L 476.0 284.0 L 476.0 285.0 L 476.0 286.0 L 476.0 287.0 L 476.0 288.0 L 476.0 289.0 L 476.0 290.0 L 476.0 291.0 L 476.0 292.0 L 476.0 293.0 L 476.0 294.0 L 476.0 295.0 L 476.0 296.0 L 476.0 297.0 L 476.0 298.0 L 476.0 299.0 L 476.0 300.0 L 476.0 301.0 L 476.0 302.0 L 476.0 303.0 L 476.0 304.0 L 476.0 305.0 L 476.0 306.0 L 476.0 307.0 L 476.0 308.0 L 476.0 309.0 L 476.0 310.0 L 476.0 311.0 L 476.0 312.0 L 476.0 313.0 L 476.0 314.0 L 476.0 315.0 L 476.0 316.0 L 476.0 317.0 L 476.0 318.0 L 475.0 319.0 L 474.0 319.0 L 473.0 319.0 L 472.0 319.0 L 471.0 319.0 L 470.0 319.0 L 469.0 319.0 L 468.0 319.0 L 467.0 319.0 L 466.0 319.0 L 465.0 319.0 L 464.0 319.0 L 463.0 319.0 L 462.0 319.0 L 461.0 319.0 L 460.0 319.0 L 459.0 319.0 L 458.0 319.0 L 457.0 319.0 L 456.0 319.0 L 455.0 319.0 L 454.0 319.0 L 453.0 319.0 L 452.0 319.0 L 451.0 319.0 L 450.0 319.0 L 449.0 319.0 L 448.0 319.0 L 447.0 319.0 L 446.0 319.0 L 445.0 319.0 L 444.0 319.0 L 443.0 319.0 L 442.0 319.0 L 441.0 319.0 L 440.0 319.0 L 439.0 319.0 L 438.0 319.0 L 437.0 319.0 L 436.0 319.0 L 435.0 319.0 L 434.0 319.0 L 433.0 319.0 L 432.0 319.0 L 431.0 319.0 L 430.0 319.0 L 429.0 319.0 L 428.0 319.0 L 427.0 319.0 L 426.0 319.0 L 425.0 319.0 L 424.0 319.0 L 423.0 319.0 L 422.0 319.0 L 421.0 319.0 L 420.0 318.0 L 419.0 317.0 L 419.0 316.0 L 419.0 315.0 L 419.0 314.0 L 419.0 313.0 L 419.0 312.0 L 419.0 311.0 L 419.0 310.0 L 419.0 309.0 L 419.0 308.0 L 419.0 307.0 L 419.0 306.0 L 419.0 305.0 L 419.0 304.0 L 419.0 303.0 L 419.0 302.0 L 419.0 301.0 L 419.0 300.0 L 419.0 299.0 L 419.0 298.0 L 419.0 297.0 L 419.0 296.0 L 419.0 295.0 L 419.0 294.0 L 419.0 293.0 L 419.0 292.0 L 419.0 291.0 L 419.0 290.0 L 419.0 289.0 L 419.0 288.0 L 419.0 287.0 L 419.0 286.0 L 419.0 285.0 L 419.0 284.0 L 419.0 283.0 L 419.0 282.0 L 419.0 281.0 L 419.0 280.0 L 419.0 279.0 L 419.0 278.0 L 419.0 277.0 L 419.0 276.0 L 419.0 275.0 L 419.0 274.0 L 419.0 273.0 L 419.0 272.0 L 419.0 271.0 L 419.0 270.0 L 419.0 269.0 L 419.0 268.0 L 419.0 267.0 L 419.0 266.0 L 419.0 265.0 L 419.0 264.0 L 419.0 263.0 L 419.0 262.0 L 419.0 261.0 L 419.0 260.0 L 419.0 259.0 L 419.0 258.0 L 419.0 257.0 L 419.0 256.0 L 419.0 255.0 L 419.0 254.0 L 419.0 253.0 L 419.0 252.0 L 419.0 251.0 L 419.0 250.0 L 419.0 249.0 L 419.0 248.0 L 419.0 247.0 L 419.0 246.0 L 419.0 245.0 L 419.0 244.0 L 419.0 243.0 L 419.0 242.0 L 419.0 241.0 L 419.0 240.0 L 419.0 239.0 L 419.0 238.0 L 419.0 237.0 L 419.0 236.0 L 419.0 235.0 L 419.0 234.0 L 419.0 233.0 L 419.0 232.0 L 419.0 231.0 L 419.0 230.0 L 419.0 229.0 L 419.0 228.0 L 419.0 227.0 L 419.0 226.0 L 419.0 225.0 L 419.0 224.0 L 419.0 223.0 L 419.0 222.0 L 419.0 221.0 L 419.0 220.0 L 419.0 219.0 L 419.0 218.0 L 419.0 217.0 L 419.0 216.0 L 419.0 215.0 L 419.0 214.0 L 419.0 213.0 L 418.0 212.0 L 418.0 211.0 L 418.0 210.0 L 417.0 209.0 L 417.0 208.0 L 417.0 207.0 L 416.0 206.0 L 416.0 205.0 L 415.0 204.0 L 414.0 203.0 L 414.0 202.0 L 413.0 201.0 L 412.0 200.0 L 411.0 199.0 L 410.0 199.0 L 409.0 198.0 L 408.0 197.0 L 407.0 196.0 L 406.0 196.0 L 405.0 196.0 L 404.0 195.0 L 403.0 195.0 L 402.0 195.0 L 401.0 194.0 L 400.0 194.0 L 399.0 194.0 L 398.0 194.0 L 397.0 194.0 L 396.0 194.0 L 395.0 194.0 L 394.0 194.0 L 393.0 194.0 L 392.0 194.0 L 391.0 194.0 L 390.0 194.0 L 389.0 194.0 L 388.0 194.0 L 387.0 195.0 L 386.0 195.0 L 385.0 195.0 L 384.0 195.0 L 383.0 196.0 L 382.0 196.0 L 381.0 197.0 L 380.0 198.0 L 379.0 198.0 L 378.0 199.0 L 377.0 200.0 L 376.0 201.0 L 376.0 202.0 L 375.0 203.0 L 374.0 204.0 L 374.0 205.0 L 373.0 206.0 L 373.0 207.0 L 372.0 208.0 L 372.0 209.0 L 371.0 210.0 L 371.0 211.0 L 371.0 212.0 L 371.0 213.0 L 370.0 214.0 L 370.0 215.0 L 370.0 216.0 L 370.0 217.0 L 370.0 218.0 L 370.0 219.0 L 370.0 220.0 L 370.0 221.0 L 370.0 222.0 L 370.0 223.0 L 370.0 224.0 L 370.0 225.0 L 370.0 226.0 L 370.0 227.0 L 370.0 228.0 L 370.0 229.0 L 370.0 230.0 L 370.0 231.0 L 370.0 232.0 L 370.0 233.0 L 370.0 234.0 L 370.0 235.0 L 370.0 236.0 L 370.0 237.0 L 370.0 238.0 L 370.0 239.0 L 370.0 240.0 L 370.0 241.0 L 370.0 242.0 L 370.0 243.0 L 370.0 244.0 L 370.0 245.0 L 370.0 246.0 L 370.0 247.0 L 370.0 248.0 L 370.0 249.0 L 370.0 250.0 L 370.0 251.0 L 370.0 252.0 L 370.0 253.0 L 370.0 254.0 L 370.0 255.0 L 370.0 256.0 L 370.0 257.0 L 370.0 258.0 L 370.0 259.0 L 370.0 260.0 L 370.0 261.0 L 370.0 262.0 L 370.0 263.0 L 370.0 264.0 L 370.0 265.0 L 370.0 266.0 L 370.0 267.0 L 370.0 268.0 L 370.0 269.0 L 370.0 270.0 L 370.0 271.0 L 370.0 272.0 L 370.0 273.0 L 370.0 274.0 L 370.0 275.0 L 370.0 276.0 L 370.0 277.0 L 370.0 278.0 L 370.0 279.0 L 370.0 280.0 L 370.0 281.0 L 370.0 282.0 L 370.0 283.0 L 370.0 284.0 L 370.0 285.0 L 370.0 286.0 L 370.0 287.0 L 370.0 288.0 L 370.0 289.0 L 370.0 290.0 L 370.0 291.0 L 370.0 292.0 L 370.0 293.0 L 370.0 294.0 L 370.0 295.0 L 370.0 296.0 L 370.0 297.0 L 370.0 298.0 L 370.0 299.0 L 370.0 300.0 L 370.0 301.0 L 370.0 302.0 L 370.0 303.0 L 370.0 304.0 L 370.0 305.0 L 370.0 306.0 L 370.0 307.0 L 370.0 308.0 L 370.0 309.0 L 370.0 310.0 L 370.0 311.0 L 370.0 312.0 L 370.0 313.0 L 370.0 314.0 L 370.0 315.0 L 370.0 316.0 L 370.0 317.0 L 369.0 318.0 L 368.0 319.0 L 367.0 319.0 L 366.0 319.0 L 365.0 319.0 L 364.0 319.0 L 363.0 319.0 L 362.0 319.0 L 361.0 319.0 L 360.0 319.0 L 359.0 319.0 L 358.0 319.0 L 357.0 319.0 L 356.0 319.0 L 355.0 319.0 L 354.0 319.0 L 353.0 319.0 L 352.0 319.0 L 351.0 319.0 L 350.0 319.0 L 349.0 319.0 L 348.0 319.0 L 347.0 319.0 L 346.0 319.0 L 345.0 319.0 L 344.0 319.0 L 343.0 319.0 L 342.0 319.0 L 341.0 319.0 L 340.0 319.0 L 339.0 319.0 L 338.0 319.0 L 337.0 319.0 L 336.0 319.0 L 335.0 319.0 L 334.0 319.0 L 333.0 319.0 L 332.0 319.0 L 331.0 319.0 L 330.0 319.0 L 329.0 319.0 L 328.0 319.0 L 327.0 319.0 L 326.0 319.0 L 325.0 319.0 L 324.0 319.0 L 323.0 319.0 L 322.0 319.0 L 321.0 319.0 L 320.0 319.0 L 319.0 319.0 L 318.0 319.0 L 317.0 319.0 L 316.0 319.0 L 315.0 319.0 L 314.0 319.0 L 313.0 318.0 L 312.0 317.0 L 312.0 316.0 L 312.0 315.0 L 312.0 314.0 L 312.0 313.0 L 312.0 312.0 L 312.0 311.0 L 312.0 310.0 L 312.0 309.0 L 312.0 308.0 L 312.0 307.0 L 312.0 306.0 L 312.0 305.0 L 312.0 304.0 L 312.0 303.0 L 312.0 302.0 L 312.0 301.0 L 312.0 300.0 L 312.0 299.0 L 312.0 298.0 L 312.0 297.0 L 312.0 296.0 L 312.0 295.0 L 312.0 294.0 L 312.0 293.0 L 312.0 292.0 L 312.0 291.0 L 312.0 290.0 L 312.0 289.0 L 312.0 288.0 L 312.0 287.0 L 312.0 286.0 L 312.0 285.0 L 312.0 284.0 L 312.0 283.0 L 312.0 282.0 L 312.0 281.0 L 312.0 280.0 L 312.0 279.0 L 312.0 278.0 L 312.0 277.0 L 312.0 276.0 L 312.0 275.0 L 312.0 274.0 L 312.0 273.0 L 312.0 272.0 L 312.0 271.0 L 312.0 270.0 L 312.0 269.0 L 312.0 268.0 L 312.0 267.0 L 312.0 266.0 L 312.0 265.0 L 312.0 264.0 L 312.0 263.0 L 312.0 262.0 L 312.0 261.0 L 312.0 260.0 L 312.0 259.0 L 312.0 258.0 L 312.0 257.0 L 312.0 256.0 L 312.0 255.0 L 312.0 254.0 L 312.0 253.0 L 312.0 252.0 L 312.0 251.0 L 312.0 250.0 L 312.0 249.0 L 312.0 248.0 L 312.0 247.0 L 312.0 246.0 L 312.0 245.0 L 312.0 244.0 L 312.0 243.0 L 312.0 242.0 L 312.0 241.0 L 312.0 240.0 L 312.0 239.0 L 312.0 238.0 L 312.0 237.0 L 312.0 236.0 L 312.0 235.0 L 312.0 234.0 L 312.0 233.0 L 312.0 232.0 L 312.0 231.0 L 312.0 230.0 L 312.0 229.0 L 312.0 228.0 L 312.0 227.0 L 312.0 226.0 L 312.0 225.0 L 312.0 224.0 L 312.0 223.0 L 312.0 222.0 L 312.0 221.0 L 312.0 220.0 L 312.0 219.0 L 312.0 218.0 L 312.0 217.0 L 312.0 216.0 L 312.0 215.0 L 312.0 214.0 L 312.0 213.0 L 312.0 212.0 L 312.0 211.0 L 312.0 210.0 L 312.0 209.0 L 312.0 208.0 L 312.0 207.0 L 312.0 206.0 L 312.0 205.0 L 312.0 204.0 L 312.0 203.0 L 312.0 202.0 L 312.0 201.0 L 312.0 200.0 L 312.0 199.0 L 312.0 198.0 L 312.0 197.0 L 312.0 196.0 L 312.0 195.0 L 312.0 194.0 L 312.0 193.0 L 312.0 192.0 L 312.0 191.0 L 312.0 190.0 L 312.0 189.0 L 312.0 188.0 L 312.0 187.0 L 312.0 186.0 L 312.0 185.0 L 312.0 184.0 L 312.0 183.0 L 312.0 182.0 L 312.0 181.0 L 312.0 180.0 L 312.0 179.0 L 312.0 178.0 L 312.0 177.0 L 312.0 176.0 L 312.0 175.0 L 312.0 174.0 L 312.0 173.0 L 312.0 172.0 L 312.0 171.0 L 312.0 170.0 L 312.0 169.0 L 312.0 168.0 L 312.0 167.0 L 312.0 166.0 L 312.0 165.0 L 312.0 164.0 L 312.0 163.0 L 312.0 162.0 L 312.0 161.0 L 312.0 160.0 L 312.0 159.0 L 312.0 158.0 L 312.0 157.0 L 312.0 156.0 L 312.0 155.0 L 312.0 154.0 L 312.0 153.0 L 312.0 152.0 L 312.0 151.0 L 313.0 150.0 L 314.0 149.0 L 315.0 149.0 L 316.0 149.0 L 317.0 149.0 L 318.0 149.0 L 319.0 149.0 L 320.0 149.0 L 321.0 149.0 L 322.0 149.0 L 323.0 149.0 L 324.0 149.0 L 325.0 149.0 L 326.0 149.0 L 327.0 149.0 L 328.0 149.0 L 329.0 149.0 L 330.0 149.0 L 331.0 149.0 L 332.0 149.0 L 333.0 149.0 L 334.0 149.0 L 335.0 149.0 L 336.0 149.0 L 337.0 149.0 L 338.0 149.0 L 339.0 149.0 L 340.0 149.0 L 341.0 149.0 L 342.0 149.0 L 343.0 149.0 L 344.0 149.0 L 345.0 149.0 L 346.0 149.0 L 347.0 149.0 L 348.0 149.0 L 349.0 149.0 L 350.0 149.0 L 351.0 149.0 L 352.0 149.0 L 353.0 149.0 L 354.0 149.0 L 355.0 149.0 L 356.0 149.0 L 357.0 149.0 L 358.0 149.0 L 359.0 149.0 L 360.0 149.0 L 361.0 149.0 L 362.0 149.0 L 363.0 149.0 L 364.0 149.0 L 365.0 149.0 L 366.0 149.0 L 367.0 149.0 L 368.0 149.0 L 369.0 150.0 L 369.0 151.0 L 369.0 152.0 L 369.0 153.0 L 369.0 154.0 L 369.0 155.0 L 369.0 156.0 L 369.0 157.0 L 369.0 158.0 L 369.0 159.0 L 369.0 160.0 L 369.0 161.0 L 369.0 162.0 L 369.0 163.0 L 369.0 164.0 L 369.0 165.0 L 369.0 166.0 L 369.0 167.0 L 370.0 167.0 L 371.0 166.0 L 372.0 165.0 L 372.0 164.0 L 373.0 163.0 L 374.0 162.0 L 375.0 161.0 L 376.0 160.0 L 377.0 160.0 L 378.0 159.0 L 379.0 158.0 L 380.0 157.0 L 381.0 156.0 L 382.0 156.0 L 383.0 155.0 L 384.0 154.0 L 385.0 153.0 L 386.0 153.0 L 387.0 152.0 L 388.0 152.0 L 389.0 151.0 L 390.0 151.0 L 391.0 150.0 L 392.0 150.0 L 393.0 149.0 L 394.0 149.0 L 395.0 148.0 L 396.0 148.0 L 397.0 148.0 L 398.0 147.0 L 399.0 147.0 L 400.0 147.0 L 401.0 146.0 L 402.0 146.0 L 403.0 146.0 Z" fill="#373536" fill-rule="evenodd"/>
</svg>
